<?xml version="1.0" ?><svg id="Line" viewBox="0 0 200 200" xmlns="http://www.w3.org/2000/svg"><path d="M177.28,22.063H123.787L110.514,48.324a66.387,66.387,0,0,0-25.088,0L72.153,22.063H18.66L44.89,73.93l.032.066a65.151,65.151,0,0,0-12.737,38.9,65.79,65.79,0,1,0,131.579,0,65.172,65.172,0,0,0-12.743-38.9Zm-6.2,3.812L148.419,70.688a66.406,66.406,0,0,0-7.614-7.7l18.757-37.112Zm-15.79,0L137.783,60.514a65.51,65.51,0,0,0-10.146-6.354l14.295-28.285Zm-29.16,0h11.53L124.174,52.561a65.168,65.168,0,0,0-9.823-3.376Zm-56.322,0L81.591,49.184a65.1,65.1,0,0,0-9.816,3.368L58.289,25.875Zm-15.791,0L68.312,54.154a66.338,66.338,0,0,0-10.145,6.353L40.65,25.875Zm-29.159,0H36.378l18.767,37.1a66.306,66.306,0,0,0-7.625,7.716Zm73.111,149A62.048,62.048,0,0,1,36,112.892,61.394,61.394,0,0,1,48.663,75.338,62.074,62.074,0,0,1,71.7,56.743a61.273,61.273,0,0,1,13.08-4.419,62.251,62.251,0,0,1,26.39,0,61.873,61.873,0,0,1,26.06,12.6A62.754,62.754,0,0,1,147.279,75.33a61.422,61.422,0,0,1,12.673,37.562A62.052,62.052,0,0,1,97.97,174.875Z"/><path d="M141.584,90.944A48.834,48.834,0,0,0,92.173,64.427a48.8,48.8,0,0,0-43.006,48.465,48.808,48.808,0,1,0,97.615,0,48.332,48.332,0,0,0-4.993-21.529ZM97.97,157.893a45.047,45.047,0,0,1-44.991-45,44.976,44.976,0,0,1,39.642-44.68,44.9,44.9,0,0,1,10.7,0,44.709,44.709,0,0,1,13.277,3.7,45.191,45.191,0,0,1,21.377,20.348l.2.407a44.556,44.556,0,0,1,4.789,20.223A45.052,45.052,0,0,1,97.97,157.893Z"/><path d="M108.415,77.546H95.1l-.572.716-.035.042c-.374.45-5.1,6.019-11.274,7.144l-1.564.286V98.407h8.52V135.26H84.037v12.989H114.3V135.26h-5.88Zm2.068,61.526v5.365H87.849v-5.365h6.138V94.6h-8.52V88.836c5.65-1.587,9.888-5.783,11.421-7.478H104.6v57.714Z"/></svg>